<?xml version="1.0" encoding="utf-8"?>
<!-- Generator: Adobe Illustrator 25.2.3, SVG Export Plug-In . SVG Version: 6.00 Build 0)  -->
<svg version="1.1" id="Layer_1" xmlns="http://www.w3.org/2000/svg" xmlns:xlink="http://www.w3.org/1999/xlink" x="0px" y="0px"
	 viewBox="0 0 446.4 515.6" style="enable-background:new 0 0 446.4 515.6;" xml:space="preserve">
<style type="text/css">
	.st0{fill:#3972C4;}
	.st1{opacity:0.6;fill:#3972C4;enable-background:new    ;}
	.st2{fill:#EEEEEE;}
	.st3{font-family:'NeueHaasUnicaW1G-Regular';}
	.st4{font-size:17.2959px;}
	.st5{clip-path:url(#SVGID_2_);}
</style>
<g transform="matrix(1, 0, 0, 1, 894.01, 2663.96)">
	<circle id="Ellipse_62-2" class="st0" cx="-724.7" cy="-2534.9" r="129.1"/>
</g>
<g transform="matrix(1, 0, 0, 1, -15, -335.98)">
	<circle id="Ellipse_63-2" class="st1" cx="71.6" cy="648.8" r="56.6"/>
</g>
<text transform="matrix(1 0 0 1 31.8474 305.1257)" class="st2 st3 st4">Ovidiu </text>
<text transform="matrix(1 0 0 1 29.4602 338.1454)" class="st2 st3 st4">Vacaru</text>
<circle id="Ellipse_64-2" class="st0" cx="179.1" cy="441.8" r="73.9"/>
<text transform="matrix(1 0 0 1 118.8528 438.4998)" class="st2 st3 st4">AI / Automation </text>
<text transform="matrix(1 0 0 1 142.053 471.5194)" class="st2 st3 st4">engineer</text>
<g>
	<g>
		<defs>
			<ellipse id="SVGID_1_" cx="269.5" cy="172.6" rx="176.9" ry="166.9"/>
		</defs>
		<clipPath id="SVGID_2_">
			<use xlink:href="#SVGID_1_"  style="overflow:visible;"/>
		</clipPath>
		<g transform="matrix(1 0 0 1 0 -9.536743e-07)" class="st5">
			
				<image style="overflow:visible;enable-background:new    ;" width="659" height="700" xlink:href="5CFE9C56.jpg"  transform="matrix(0.5788 0 0 0.5788 78.7816 -15.6563)">
			</image>
		</g>
	</g>
</g>
</svg>
