<svg xmlns="http://www.w3.org/2000/svg" width="964.066" height="620.239" viewBox="0 0 964.066 620.239">
  <g id="Group_198" data-name="Group 198" transform="translate(661.52 -3558.791) rotate(16)">
    <path id="Path_397" data-name="Path 397" d="M698.811,116.76c45.055,35.734,63.008,111.283,49.015,175.014s-55.28,114.805-103.472,143.657c-40.139,24.032-92.987,31.972-125.822-5.269-9.148-10.371-16.366-25.842-12.987-40.584,3.523-15.354,18.191-24.105,30.929-21.238s23.1,15.045,29.077,29.2a73.357,73.357,0,0,1,5.979,30.951c-1.274,33.7-28.432,56.939-54.6,66.868-51.228,19.435-109.6,7.7-153.161-30.781-19.854-17.543-29.906-61.918-43.931-96.238-12.946-29.394-30.662-43.713-57.178-50.632-31.275-8.159-103.568,36.813-103.568,36.813s-54.363,63.414-73.361,80.91C46.894,471.2-37.833,364.883-86.881,397.542s-49.626,51.843-49.626,51.843" transform="translate(585.802 3457.685)" fill="none" stroke="gray" stroke-miterlimit="10" stroke-width="2" stroke-dasharray="12"/>
    <path id="Path_398" data-name="Path 398" d="M0,8.209,29.106,58.356,76.6,0Z" transform="translate(1232.286 3608.336) rotate(-132)" fill="#3972c4"/>
    <path id="Path_399" data-name="Path 399" d="M0,25.226,66.719,0,0,58.356Z" transform="translate(1225.677 3600.996) rotate(-132)" fill="#fff"/>
  </g>
</svg>
