<svg xmlns="http://www.w3.org/2000/svg" xmlns:xlink="http://www.w3.org/1999/xlink" width="355.71" height="338.787" viewBox="0 0 355.71 338.787">
  <defs>
    <linearGradient id="linear-gradient" y1="0.5" x2="1" y2="0.5" gradientUnits="objectBoundingBox">
      <stop offset="0" stop-color="#666"/>
      <stop offset="1" stop-color="#ebebeb"/>
    </linearGradient>
    <linearGradient id="linear-gradient-2" x1="0" y1="0.5" x2="1" y2="0.5" xlink:href="#linear-gradient"/>
  </defs>
  <g id="Group_215" data-name="Group 215" transform="translate(-65.911 -3363.268)">
    <g id="Group_199" data-name="Group 199" transform="matrix(0.891, -0.454, 0.454, 0.891, -1938.842, 546.415)">
      <path id="Path_397" data-name="Path 397" d="M128.044,116.76C142.313,137.518,148,181.4,143.568,218.424s-17.508,66.689-32.77,83.449c-12.712,13.96-29.45,18.572-39.849-3.061-2.9-6.025-5.183-15.011-4.113-23.575,1.116-8.919,5.761-14,9.8-12.337s7.317,8.739,9.209,16.963a74.576,74.576,0,0,1,1.894,17.979c-.4,19.579-9,33.075-17.292,38.843-16.224,11.29-34.711,4.475-48.507-17.88-6.288-10.19-9.472-35.968-13.913-55.9-4.1-17.075-9.711-25.393-18.109-29.412-9.9-4.74-32.8,21.384-32.8,21.384s-17.217,36.836-23.234,47c-12.3,20.777-39.134-40.981-54.668-22.01s-15.717,30.115-15.717,30.115" transform="translate(585.802 3419.828)" fill="none" stroke="gray" stroke-miterlimit="10" stroke-width="2" stroke-dasharray="12"/>
      <path id="Path_398" data-name="Path 398" d="M0,.848,12.014,19.684,27.765,0Z" transform="translate(696.756 3548.235) rotate(-132)" fill="#3972c4"/>
      <path id="Path_399" data-name="Path 399" d="M0,7.239,23.688,0,.91,19.155Z" transform="translate(694.028 3545.206) rotate(-132)" fill="#fff"/>
    </g>
    <g id="Group_197" data-name="Group 197" transform="translate(-82.111 -325.94)">
      <path id="Path_359" data-name="Path 359" d="M203.572,290.191c-18.351,5.7-35.036,5.63-43.015,5.539a150.62,150.62,0,0,1-31.417-3.573C114.8,288.839,72.3,279,65.663,252.555c-4.109-16.378,7.284-32.148,9.831-35.671,26.475-36.645,87.736-29.957,115.158-26.964a122.669,122.669,0,0,1,42.693,13.2c11.9,6.275,17.154,11.718,20.5,16.29,2.079,2.837,8.515,11.676,8.707,21.347C263.034,264.826,224.6,283.66,203.572,290.191Z" transform="translate(113.441 3727.553)" fill="#adc3e4"/>
      <path id="Path_360" data-name="Path 360" d="M97.493,215.015a1.645,1.645,0,0,1-.281,1.756c-.766.584-2.637-.313-3.484-1.625a3.31,3.31,0,0,1-.413-.9c-.62-2.171-16.157-71.723-16.731-74.288l-.019-.157a4.061,4.061,0,0,1,.284-2.023,4.531,4.531,0,0,1,1.644-1.9c1.608-1.091,40.186-23.48,92.87-53.927l9.69-5.619a6.178,6.178,0,0,1,2.979-.246c.374.064,1.339.227,1.361.522.016.232-.544.613-3.419,1.238L79.69,136.686a3.831,3.831,0,0,0-.856,1.931c-1.131,9.87,45.706,12.687,50.82,32.126,4.031,15.323-34.693,41.5-33.178,43.184A2.531,2.531,0,0,1,97.493,215.015Z" transform="translate(111.384 3747.046)" fill="#666" opacity="0.67"/>
      <path id="Path_361" data-name="Path 361" d="M79.089,139.53l16.852,76.046s.632,1.474,1.686,1.264,104.906-60.669,104.906-60.669,1.264-.422,1.474-3.581S186.523,77.6,186.523,77.6s-.421-1.685-2.738-1.054S80.774,136.37,80.774,136.37a4.971,4.971,0,0,0-1.665,1.679A1.608,1.608,0,0,0,79.089,139.53Z" transform="translate(110.97 3746.976)" fill="#ebebeb" opacity="0.67"/>
      <path id="Path_362" data-name="Path 362" d="M81.565,141.167l14.843,66.692a2.1,2.1,0,0,0,3.1,1.364l100.66-58.042a2.1,2.1,0,0,0,1-2.29L185.929,82.4a2.1,2.1,0,0,0-3.1-1.351L82.567,138.89A2.1,2.1,0,0,0,81.565,141.167Z" transform="translate(110.514 3746.213)" fill="#666" opacity="0.67"/>
      <path id="Path_363" data-name="Path 363" d="M132.09,232.724a4.314,4.314,0,0,0-1.974,2.031,4.561,4.561,0,0,0,.229,3.932l15.378,11.8s4.752,2.318,9.432.843,25.957-14.536,25.957-14.536,1.77-2.235.974-4.167c-.762-1.849-3.205-2.277-3.713-2.363-5.141-.877-7.268,6.766-14.956,10.778-7.919,4.133-18.88,2.922-25.911-2.352A21.818,21.818,0,0,1,132.09,232.724Z" transform="translate(102.074 3720.073)" fill="#666" opacity="0.81"/>
      <path id="Path_364" data-name="Path 364" d="M164.945,221.9l14.114,5.971s3.582,1.685,0,5.266-24,13.692-24,13.692-6.543.843-8.017-1.264L131.872,234.4s-1.9-1.9,0-4.634l21.99-13.222Z" transform="translate(101.852 3722.459)" fill="#c7c7c7" opacity="0.81"/>
      <path id="Path_365" data-name="Path 365" d="M210.875,194.787s-1.171,2.422,0,3.476l12.652,15.8s3.476,2.738,6.952,1.79l30.018-8c2.181-1.983,2.337-2.8,2.148-3.188-1.223-2.5-18.969,8.726-34.379,4.242C219.667,206.4,214.092,199.673,210.875,194.787Z" transform="translate(87.975 3726.266)" fill="#3972c4" opacity="0.76"/>
      <path id="Path_366" data-name="Path 366" d="M211.945,194.779,224.795,211s4.638,2.582,8.007.9l27.032-7.162s4.494-1.2,2.95-6.429l-11.8-15.057s-3.792-4.214-9.129-1.966l-28.072,7.3S208.994,191.053,211.945,194.779Z" transform="translate(87.865 3728.744)" fill="#87b1f0" opacity="0.76"/>
      <path id="Path_367" data-name="Path 367" d="M230.012,192.106a3.914,3.914,0,0,0,.3,2.167,5.411,5.411,0,0,0,2.856,2.515c4.752,2.3,4.735,4.7,10.743,7.431a17.792,17.792,0,0,0,3.243,1.075c1.738.4,3.889.656,5.429-.343,2.914-1.89-15.729-8.657-15.729-8.657Z" transform="translate(84.543 3726.735)" fill="#666"/>
      <path id="Path_368" data-name="Path 368" d="M230.02,191.112c.1,2.4,2.72,3.285,10.646,8.627a25.417,25.417,0,0,0,4.943,2.96c1.7.7,6,2.478,7.86.737,1.64-1.535.6-5.062.355-5.872-2.383-8.041-12.706-10.458-13.166-10.558-1.869-.41-7.093-1.555-9.507,1.24A4.28,4.28,0,0,0,230.02,191.112Z" transform="translate(84.535 3727.729)" fill="#ebebeb"/>
      <path id="Path_369" data-name="Path 369" d="M133.822,294.127l27.041,18.4s2.106,1.264,3.792,0c0,0,68.651-36.092,87.9-50.416,0,0,.722-1.545-.046-2.4s-89.494,47.9-89.494,47.9l-29.2-18.538c-.242.983-.443,1.748-.572,2.229-.3,1.106-.452,1.616-.193,2.124A1.646,1.646,0,0,0,133.822,294.127Z" transform="translate(101.52 3714.911)" fill="#3972c4" opacity="0.75"/>
      <path id="Path_402" data-name="Path 402" d="M320.509,75.983l-3.078,18.575,7.529,3.96V73.4Z" transform="translate(-63.504 3860.368)" opacity="0.81" fill="url(#linear-gradient)"/>
      <path id="Path_370" data-name="Path 370" d="M134.511,284.878,161.053,305.8s2.388,1.826,4.494,0l86.79-50.417s1.4-1.545-.983-2.809L227.62,231.794s-1.4-1.966-4.354,0-88.053,50.557-88.053,50.557S133.067,283.74,134.511,284.878Z" transform="translate(101.33 3719.945)" fill="#87b1f0" opacity="0.75"/>
      <path id="Path_371" data-name="Path 371" d="M165.711,208.97v25.387a5.365,5.365,0,0,0,6.084-2.949V205.44Z" transform="translate(95.785 3724.403)" fill="#ebebeb" opacity="0.81"/>
      <path id="Path_372" data-name="Path 372" d="M160.021,212.828c1.5-.172,3.2-.346,4.695-.518,0,0,4.54-.218,6.084-3.339v-3.53l-6.084,3.53-4.5,2.61C160.22,212,160.019,212.412,160.021,212.828Z" transform="translate(96.78 3724.403)" opacity="0.81" fill="url(#linear-gradient-2)"/>
      <g id="Group_129" data-name="Group 129" transform="translate(236.206 3950.265)" opacity="0.81">
        <g id="Group_128" data-name="Group 128">
          <g id="Group_127" data-name="Group 127">
            <path id="Path_373" data-name="Path 373" d="M263.655,248.874c2.529-1.421,5.11-2.893,7.865-4.605l9.106,5.3c-3.213,1.983-5.987,3.545-8.639,5.023Z" transform="translate(-163.927 -229.346)" fill="#3972c4"/>
            <path id="Path_374" data-name="Path 374" d="M248.675,257.4l3.555-1.979,3.621-1.984,8.225,5.76-3.609,1.958-3.511,1.936Z" transform="translate(-159.74 -231.911)" fill="#3972c4"/>
            <path id="Path_375" data-name="Path 375" d="M233.671,265.258l7.107-3.911,8.322,5.648-7.022,3.828Z" transform="translate(-155.545 -234.121)" fill="#3972c4"/>
            <path id="Path_376" data-name="Path 376" d="M219,273.27c2.384-1.3,4.766-2.607,7.128-3.885l8.449,5.524-3.518,1.9-3.572,1.932Z" transform="translate(-151.444 -236.367)" fill="#3972c4"/>
            <path id="Path_377" data-name="Path 377" d="M204.282,281.238l7.142-3.85,8.489,5.45-7.139,3.813Z" transform="translate(-147.33 -238.605)" fill="#3972c4"/>
            <path id="Path_378" data-name="Path 378" d="M189.576,289.086l7.137-3.786,8.493,5.395-7.134,3.749Z" transform="translate(-143.219 -240.816)" fill="#3972c4"/>
            <path id="Path_379" data-name="Path 379" d="M174.88,296.8l7.132-3.723,8.5,5.339L183.38,302.1Z" transform="translate(-139.11 -242.991)" fill="#3972c4"/>
            <path id="Path_380" data-name="Path 380" d="M160.194,304.388l7.127-3.659,8.5,5.284-7.124,3.622Z" transform="translate(-135.005 -245.13)" fill="#3972c4"/>
            <path id="Path_381" data-name="Path 381" d="M247.128,238.068c2.352-1.337,4.659-2.677,6.759-4l9.121,5.121c-2.558,1.6-5.058,3.028-7.534,4.424Z" transform="translate(-159.307 -226.496)" fill="#3972c4"/>
            <path id="Path_382" data-name="Path 382" d="M232.249,246.378l3.617-2.04,3.638-2.02,8.239,5.59-3.626,1.995-3.573,2Z" transform="translate(-155.148 -228.801)" fill="#3972c4"/>
            <path id="Path_383" data-name="Path 383" d="M216.993,254.479l7.229-4.031,8.336,5.477-7.144,3.947Z" transform="translate(-150.883 -231.074)" fill="#3972c4"/>
            <path id="Path_384" data-name="Path 384" d="M202.164,262.7c2.38-1.318,4.765-2.64,7.183-3.967l8.463,5.352q-3.568,1.94-7.145,3.91Z" transform="translate(-146.738 -233.389)" fill="#3972c4"/>
            <path id="Path_385" data-name="Path 385" d="M187.438,270.787l7.147-3.9,8.5,5.277-7.144,3.866Z" transform="translate(-142.621 -235.668)" fill="#3972c4"/>
            <path id="Path_386" data-name="Path 386" d="M172.723,278.745l7.141-3.84,8.507,5.222-7.138,3.8Z" transform="translate(-138.507 -237.911)" fill="#3972c4"/>
            <path id="Path_387" data-name="Path 387" d="M158.018,286.571l7.136-3.776,8.512,5.166-7.133,3.739Z" transform="translate(-134.397 -240.116)" fill="#3972c4"/>
            <path id="Path_388" data-name="Path 388" d="M143.323,294.267l7.131-3.713,8.516,5.111-7.128,3.675Z" transform="translate(-130.289 -242.285)" fill="#3972c4"/>
            <path id="Path_389" data-name="Path 389" d="M229.4,226.882c2.164-1.244,4.176-2.438,5.573-3.326l9.137,4.926c-1.857,1.171-4.063,2.461-6.349,3.766Z" transform="translate(-154.353 -223.556)" fill="#3972c4"/>
            <path id="Path_390" data-name="Path 390" d="M214.634,234.948l3.684-2.106,3.656-2.06,8.253,5.409-3.644,2.034-3.64,2.063Z" transform="translate(-150.224 -225.576)" fill="#3972c4"/>
            <path id="Path_391" data-name="Path 391" d="M199.107,243.316l7.36-4.161,8.351,5.294-7.274,4.076Z" transform="translate(-145.883 -227.917)" fill="#3972c4"/>
            <path id="Path_392" data-name="Path 392" d="M184.111,251.761l3.578-2.006,3.663-2.048,8.478,5.167c-2.438,1.345-4.824,2.674-7.2,4Z" transform="translate(-141.691 -230.307)" fill="#3972c4"/>
            <path id="Path_393" data-name="Path 393" d="M169.375,259.979l7.151-3.961,8.518,5.092-7.148,3.923Z" transform="translate(-137.571 -232.631)" fill="#3972c4"/>
            <path id="Path_394" data-name="Path 394" d="M154.649,268.054l7.146-3.9,8.522,5.036-7.143,3.86Z" transform="translate(-133.455 -234.906)" fill="#3972c4"/>
            <path id="Path_395" data-name="Path 395" d="M139.935,276l7.141-3.833,8.527,4.981-7.138,3.8Z" transform="translate(-129.342 -237.145)" fill="#3972c4"/>
            <path id="Path_396" data-name="Path 396" d="M125.231,283.812l7.136-3.77,8.531,4.925-7.133,3.732Z" transform="translate(-125.231 -239.347)" fill="#3972c4"/>
          </g>
        </g>
      </g>
    </g>
  </g>
</svg>
