<svg xmlns="http://www.w3.org/2000/svg" xmlns:xlink="http://www.w3.org/1999/xlink" width="418.78" height="433.95" viewBox="0 0 418.78 433.95">
  <defs>
    <linearGradient id="linear-gradient" y1="0.5" x2="1" y2="0.5" gradientUnits="objectBoundingBox">
      <stop offset="0" stop-color="#666"/>
      <stop offset="1" stop-color="#ebebeb"/>
    </linearGradient>
    <linearGradient id="linear-gradient-2" x1="0" y1="0.5" x2="1" y2="0.5" xlink:href="#linear-gradient"/>
  </defs>
  <g id="Group_197" data-name="Group 197" transform="translate(-178.22 -3823.05)">
    <path id="Path_359" data-name="Path 359" d="M358.659,405.013c-38.856,12.068-74.186,11.921-91.079,11.729a318.923,318.923,0,0,1-66.522-7.566C170.7,402.149,80.7,381.324,66.652,325.321c-8.7-34.678,15.424-68.07,20.815-75.529C143.526,172.2,273.24,186.36,331.3,192.7a259.739,259.739,0,0,1,90.4,27.952c25.2,13.286,36.322,24.812,43.414,34.492,4.4,6.008,18.029,24.723,18.436,45.2C484.564,351.3,403.179,391.184,358.659,405.013Z" transform="translate(113.441 3830.281)" fill="#adc3e4"/>
    <path id="Path_360" data-name="Path 360" d="M120.907,370.344c.458,1.212.36,2.989-.594,3.718-1.623,1.237-5.583-.662-7.378-3.44a7.009,7.009,0,0,1-.875-1.913c-1.312-4.6-34.211-151.865-35.425-157.3l-.04-.332a8.6,8.6,0,0,1,.6-4.284,9.593,9.593,0,0,1,3.48-4.015c3.4-2.31,85.09-49.716,196.642-114.185l20.518-11.9a13.082,13.082,0,0,1,6.308-.521c.791.135,2.835.48,2.881,1.106.035.491-1.151,1.3-7.24,2.62L83.211,204.491a8.112,8.112,0,0,0-1.813,4.09C79,229.48,178.175,235.444,189,276.6c8.536,32.445-73.459,87.863-70.252,91.437A5.359,5.359,0,0,1,120.907,370.344Z" transform="translate(122.226 3747.046)" fill="#666" opacity="0.67"/>
    <path id="Path_361" data-name="Path 361" d="M79.293,210.069l35.682,161.02s1.338,3.122,3.569,2.676S340.672,245.305,340.672,245.305s2.676-.893,3.122-7.582-37.022-158.79-37.022-158.79-.891-3.567-5.8-2.231S82.861,203.378,82.861,203.378c-.332.124-1.586.886-3.525,3.555C78.483,208.1,79.14,209.518,79.293,210.069Z" transform="translate(123.995 3747.343)" fill="#ebebeb" opacity="0.67"/>
    <path id="Path_362" data-name="Path 362" d="M81.621,208.662,113.05,349.874a4.449,4.449,0,0,0,6.565,2.888l213.137-122.9a4.451,4.451,0,0,0,2.114-4.85L302.6,84.221a4.45,4.45,0,0,0-6.56-2.86L83.742,203.842A4.45,4.45,0,0,0,81.621,208.662Z" transform="translate(125.943 3750.6)" fill="#666" opacity="0.67"/>
    <path id="Path_363" data-name="Path 363" d="M134.693,235.553a9.135,9.135,0,0,0-4.181,4.3A9.658,9.658,0,0,0,131,248.18l32.56,24.978s10.061,4.907,19.972,1.785,54.962-30.778,54.962-30.778,3.747-4.733,2.063-8.822c-1.614-3.915-6.787-4.822-7.861-5-10.885-1.857-15.389,14.325-31.668,22.821-16.768,8.751-39.976,6.186-54.864-4.981A46.2,46.2,0,0,1,134.693,235.553Z" transform="translate(161.983 3862.222)" fill="#666" opacity="0.81"/>
    <path id="Path_364" data-name="Path 364" d="M202.842,227.889l29.884,12.643s7.584,3.567,0,11.151S181.9,280.675,181.9,280.675,168.051,282.46,164.929,278l-32.115-23.64s-4.015-4.013,0-9.813l46.561-28Z" transform="translate(162.93 3852.03)" fill="#c7c7c7" opacity="0.81"/>
    <path id="Path_365" data-name="Path 365" d="M211.456,194.787s-2.479,5.129,0,7.36L238.244,235.6s7.36,5.8,14.72,3.791l63.561-16.949c4.617-4.2,4.949-5.931,4.549-6.75-2.589-5.285-40.165,18.476-72.793,8.981C230.072,219.372,218.269,205.133,211.456,194.787Z" transform="translate(222.184 3835.774)" fill="#3972c4" opacity="0.76"/>
    <path id="Path_366" data-name="Path 366" d="M213.019,210.594l27.208,34.354s9.822,5.466,16.954,1.9l57.237-15.166s9.516-2.542,6.245-13.612l-24.978-31.882s-8.029-8.922-19.329-4.163l-59.439,15.463S206.77,202.7,213.019,210.594Z" transform="translate(222.655 3825.196)" fill="#87b1f0" opacity="0.76"/>
    <path id="Path_367" data-name="Path 367" d="M230.058,192.106a8.287,8.287,0,0,0,.645,4.588c1.412,3.192,4.542,4.6,6.046,5.325,10.063,4.864,10.026,9.953,22.747,15.735a37.67,37.67,0,0,0,6.867,2.276c3.681.851,8.235,1.389,11.5-.727,6.17-4-33.3-18.329-33.3-18.329Z" transform="translate(236.838 3833.772)" fill="#666"/>
    <path id="Path_368" data-name="Path 368" d="M230.023,196.352c.2,5.072,5.76,6.956,22.541,18.266,5.038,3.4,6.8,4.754,10.466,6.266,3.6,1.485,12.7,5.246,16.643,1.56,3.473-3.249,1.261-10.718.751-12.433-5.045-17.026-26.9-22.143-27.877-22.356-3.957-.868-15.019-3.293-20.131,2.626A9.062,9.062,0,0,0,230.023,196.352Z" transform="translate(236.873 3829.526)" fill="#ebebeb"/>
    <path id="Path_369" data-name="Path 369" d="M134.823,332.6l57.257,38.952s4.46,2.676,8.029,0c0,0,145.361-76.42,186.124-106.751,0,0,1.529-3.27-.1-5.073S196.642,361.141,196.642,361.141l-61.819-39.251c-.512,2.081-.938,3.7-1.211,4.72-.627,2.343-.957,3.422-.409,4.5A3.486,3.486,0,0,0,134.823,332.6Z" transform="translate(164.346 3884.263)" fill="#3972c4" opacity="0.75"/>
    <path id="Path_402" data-name="Path 402" d="M323.948,78.868l-6.517,39.33,15.941,8.385V73.4Z" transform="translate(21.091 3984.084)" opacity="0.81" fill="url(#linear-gradient)"/>
    <path id="Path_370" data-name="Path 370" d="M135.069,345.171l56.2,44.307s5.056,3.866,9.516,0L384.554,282.725s2.973-3.27-2.082-5.947L332.218,232.77s-2.973-4.163-9.219,0S136.556,339.818,136.556,339.818,132.012,342.76,135.069,345.171Z" transform="translate(165.157 3862.765)" fill="#87b1f0" opacity="0.75"/>
    <path id="Path_371" data-name="Path 371" d="M165.711,212.915V266.67s8.868,2.231,12.882-6.244V205.44Z" transform="translate(188.836 3843.732)" fill="#ebebeb" opacity="0.81"/>
    <path id="Path_372" data-name="Path 372" d="M160.021,221.083c3.171-.365,6.771-.732,9.94-1.1,0,0,9.612-.461,12.882-7.07V205.44l-12.882,7.475-9.525,5.526C160.442,219.322,160.018,220.2,160.021,221.083Z" transform="translate(184.586 3843.732)" opacity="0.81" fill="url(#linear-gradient-2)"/>
    <g id="Group_129" data-name="Group 129" transform="translate(301 4092.415)" opacity="0.81">
      <g id="Group_128" data-name="Group 128">
        <g id="Group_127" data-name="Group 127">
          <path id="Path_373" data-name="Path 373" d="M263.655,254.02c5.354-3.01,10.82-6.126,16.654-9.751L299.589,255.5c-6.8,4.2-12.677,7.505-18.292,10.636Z" transform="translate(-52.493 -212.672)" fill="#3972c4"/>
          <path id="Path_374" data-name="Path 374" d="M248.675,261.831l7.527-4.19,7.667-4.2,17.415,12.2-7.642,4.145-7.434,4.1Z" transform="translate(-60.364 -207.852)" fill="#3972c4"/>
          <path id="Path_375" data-name="Path 375" d="M233.671,269.629l15.049-8.281,17.622,11.958-14.868,8.106Z" transform="translate(-68.249 -203.697)" fill="#3972c4"/>
          <path id="Path_376" data-name="Path 376" d="M219,277.612c5.048-2.758,10.091-5.519,15.093-8.227l17.889,11.7-7.449,4.017-7.563,4.091Z" transform="translate(-75.958 -199.474)" fill="#3972c4"/>
          <path id="Path_377" data-name="Path 377" d="M204.282,285.54l15.123-8.152,17.974,11.54L222.262,297Z" transform="translate(-83.692 -195.269)" fill="#3972c4"/>
          <path id="Path_378" data-name="Path 378" d="M189.576,293.317l15.112-8.017,17.983,11.423-15.106,7.938Z" transform="translate(-91.42 -191.111)" fill="#3972c4"/>
          <path id="Path_379" data-name="Path 379" d="M174.88,300.962l15.1-7.883,17.993,11.305-15.095,7.8Z" transform="translate(-99.142 -187.023)" fill="#3972c4"/>
          <path id="Path_380" data-name="Path 380" d="M160.194,308.477l15.09-7.748,18,11.188L178.2,319.585Z" transform="translate(-106.859 -183.004)" fill="#3972c4"/>
          <path id="Path_381" data-name="Path 381" d="M247.128,242.534c4.981-2.831,9.865-5.669,14.31-8.462l19.313,10.843c-5.417,3.377-10.71,6.412-15.952,9.368Z" transform="translate(-61.177 -218.03)" fill="#3972c4"/>
          <path id="Path_382" data-name="Path 382" d="M232.249,250.915l7.659-4.319,7.7-4.278,17.444,11.837-7.678,4.223-7.566,4.228Z" transform="translate(-68.996 -213.697)" fill="#3972c4"/>
          <path id="Path_383" data-name="Path 383" d="M216.993,258.983l15.307-8.535,17.651,11.6L234.825,270.4Z" transform="translate(-77.013 -209.425)" fill="#3972c4"/>
          <path id="Path_384" data-name="Path 384" d="M202.164,267.131c5.04-2.79,10.089-5.589,15.209-8.4l17.92,11.333q-7.556,4.107-15.128,8.279Z" transform="translate(-84.805 -205.072)" fill="#3972c4"/>
          <path id="Path_385" data-name="Path 385" d="M187.438,275.149l15.132-8.265,18,11.174-15.126,8.186Z" transform="translate(-92.543 -200.788)" fill="#3972c4"/>
          <path id="Path_386" data-name="Path 386" d="M172.723,283.035l15.121-8.131,18.013,11.056-15.115,8.051Z" transform="translate(-100.275 -196.573)" fill="#3972c4"/>
          <path id="Path_387" data-name="Path 387" d="M158.018,290.791l15.11-8,18.023,10.939-15.1,7.917Z" transform="translate(-108.002 -192.427)" fill="#3972c4"/>
          <path id="Path_388" data-name="Path 388" d="M143.323,298.415l15.1-7.861,18.032,10.821-15.093,7.782Z" transform="translate(-115.724 -188.35)" fill="#3972c4"/>
          <path id="Path_389" data-name="Path 389" d="M229.4,230.6c4.581-2.634,8.843-5.162,11.8-7.043l19.346,10.43c-3.931,2.48-8.6,5.211-13.444,7.975Z" transform="translate(-70.491 -223.556)" fill="#3972c4"/>
          <path id="Path_390" data-name="Path 390" d="M214.634,239.6l7.8-4.46,7.742-4.362,17.476,11.453-7.717,4.307-7.708,4.367Z" transform="translate(-78.252 -219.759)" fill="#3972c4"/>
          <path id="Path_391" data-name="Path 391" d="M199.107,247.965l15.584-8.81,17.683,11.209-15.4,8.629Z" transform="translate(-86.411 -215.359)" fill="#3972c4"/>
          <path id="Path_392" data-name="Path 392" d="M184.111,256.291l7.576-4.248,7.756-4.337,17.952,10.941c-5.162,2.848-10.215,5.663-15.252,8.465Z" transform="translate(-94.291 -210.866)" fill="#3972c4"/>
          <path id="Path_393" data-name="Path 393" d="M169.375,264.4l15.142-8.386L202.552,266.8l-15.136,8.307Z" transform="translate(-102.035 -206.498)" fill="#3972c4"/>
          <path id="Path_394" data-name="Path 394" d="M154.649,272.409l15.131-8.252,18.045,10.664L172.7,282.993Z" transform="translate(-109.772 -202.221)" fill="#3972c4"/>
          <path id="Path_395" data-name="Path 395" d="M139.935,280.282l15.12-8.117,18.055,10.546L158,290.749Z" transform="translate(-117.505 -198.013)" fill="#3972c4"/>
          <path id="Path_396" data-name="Path 396" d="M125.231,288.024l15.109-7.982L158.4,290.471l-15.1,7.9Z" transform="translate(-125.231 -193.874)" fill="#3972c4"/>
        </g>
      </g>
    </g>
    <g id="Group_135" data-name="Group 135" transform="translate(336.72 3860.5)" opacity="0.64">
      <g id="Group_134" data-name="Group 134">
        <path id="Path_400" data-name="Path 400" d="M299.029,116.916c-44.74-10.692-81.008,39.547-81.008,112.208s36.268,118.358,81.008,102.06,81.008-66.534,81.008-112.208S343.769,127.607,299.029,116.916Zm21.29,137.153c-5.641.885-10.861-3.188-10.436-14.28l-.565.061c-4.935,11.385-11.424,17.731-19.886,19.053-8.18,1.281-15.234-7-15.234-22.762,0-24.746,13.823-46.824,33.429-46.158a32.235,32.235,0,0,1,15.091,4.171l-4.8,31.856c-2.116,13.658-.425,19.658,4.23,19.225,7.194-.769,15.234-13.14,15.234-32.441,0-24.124-12.272-42.609-34.132-44.708-22.991-2.21-42.314,22.578-42.314,64.5,0,34.491,15.374,52.382,36.248,47.788a46.536,46.536,0,0,0,21.3-10.859l2.256,7.074a55.8,55.8,0,0,1-25.1,13.164c-23.131,5.673-42.737-14.809-42.737-55.272,0-43.415,20.169-78.506,51.482-74.741,24.542,2.949,41.043,24.716,41.043,51.8C345.426,235.868,333.577,251.994,320.319,254.068Z" transform="translate(-218.021 -115.481)" fill="#f1f1f1" stroke="#707070" stroke-width="0.5"/>
        <path id="Path_401" data-name="Path 401" d="M244.665,184.618c0,8.566,3.1,14.4,9.308,13.6,8.18-1.05,15.656-15.443,17.207-26.791l2.962-20.417a19.759,19.759,0,0,0-7.052-1.3C254.678,149.636,244.665,165.732,244.665,184.618Z" transform="translate(-179.178 -65.576)" fill="#f1f1f1" stroke="#707070" stroke-width="0.5"/>
      </g>
    </g>
  </g>
</svg>
