<?xml version="1.0" encoding="utf-8"?>
<!-- Generator: Adobe Illustrator 25.2.1, SVG Export Plug-In . SVG Version: 6.00 Build 0)  -->
<svg version="1.1" id="Layer_2" xmlns="http://www.w3.org/2000/svg" xmlns:xlink="http://www.w3.org/1999/xlink" x="0px" y="0px"
	 viewBox="0 0 280.3 261.3" style="enable-background:new 0 0 280.3 261.3;" xml:space="preserve">
<style type="text/css">
	.st0{fill:#D6D6D6;}
	.st1{fill:url(#SVGID_1_);}
	.st2{fill:url(#SVGID_2_);}
	.st3{opacity:0;fill:#FFFFFF;}
	.st4{fill:#B3B3B3;}
	.st5{fill:none;}
</style>
<path class="st0" d="M255.6,131.5c0,59.9-48.6,108.5-108.5,108.5c-59.9,0-108.5-48.6-108.5-108.5c0-33.4,15.1-63.2,38.8-83.1
	l68.3,70.6l72.9-69.1C241.2,69.7,255.6,98.9,255.6,131.5z"/>
<linearGradient id="SVGID_1_" gradientUnits="userSpaceOnUse" x1="139.0181" y1="168.1505" x2="148.2096" y2="70.8739">
	<stop  offset="0" style="stop-color:#599DFF"/>
	<stop  offset="0.9955" style="stop-color:#1351AB"/>
</linearGradient>
<path class="st1" d="M54.5,74.8l91.1,102.4L240.9,77c0,0-10.4-18-22.4-27.2L145.6,119L77.3,48.3C77.3,48.3,60.7,63.2,54.5,74.8z"/>
<linearGradient id="SVGID_2_" gradientUnits="userSpaceOnUse" x1="145.4406" y1="105.1911" x2="147.3677" y2="17.8288">
	<stop  offset="0" style="stop-color:#599DFF"/>
	<stop  offset="0.9955" style="stop-color:#1351AB"/>
</linearGradient>
<path class="st2" d="M198.9,36.2L145,90.6L95,36.5C141,11.8,181.5,27,198.9,36.2z"/>
<path class="st3" d="M77.3,48.3c3.7-3.5,8.6-6.6,9.7-7.3C83.7,43.3,80.4,45.7,77.3,48.3z"/>
<path class="st3" d="M218.4,49.8c-3.3-2.9-6.7-5.5-10.3-8C213.2,45,217.6,49,218.4,49.8z"/>
<path class="st4" d="M62.9,84.2c27.3,41.9,54.7,83.8,82,125.6c31.6-43.8,63.2-87.7,94.7-131.5l0,0c-31.3,32.9-62.7,65.9-94,98.8
	L62.9,84.2z"/>
<line class="st5" x1="145" y1="90.6" x2="95" y2="36.5"/>
<line class="st5" x1="198.9" y1="36.2" x2="145" y2="90.6"/>
</svg>
