<?xml version="1.0" encoding="utf-8"?>
<!-- Generator: Adobe Illustrator 25.2.3, SVG Export Plug-In . SVG Version: 6.00 Build 0)  -->
<svg version="1.1" id="Layer_1" xmlns="http://www.w3.org/2000/svg" xmlns:xlink="http://www.w3.org/1999/xlink" x="0px" y="0px"
	 viewBox="0 0 446.4 515.6" style="enable-background:new 0 0 446.4 515.6;" xml:space="preserve">
<style type="text/css">
	.st0{fill:#3972C4;}
	.st1{fill:#EEEEEE;}
	.st2{font-family:'NeueHaasUnicaW1G-Medium';}
	.st3{font-size:17.2959px;}
	.st4{clip-path:url(#SVGID_2_);}
</style>
<g transform="matrix(1, 0, 0, 1, -15, -10)">
	<circle id="Ellipse_63-2_1_" class="st0" cx="71.6" cy="322.6" r="55.5"/>
</g>
<g transform="matrix(1, 0, 0, 1, 894.01, 2663.96)">
	<circle id="Ellipse_62-2" class="st0" cx="-724.7" cy="-2534.9" r="129.1"/>
</g>
<g>
	<text transform="matrix(1 0 0 1 31.8474 305.3663)" class="st1 st2 st3">Ovidiu </text>
	<text transform="matrix(1 0 0 1 32.5911 329.8416)" class="st1 st2 st3">Vacaru</text>
</g>
<circle id="Ellipse_64-2" class="st0" cx="179.1" cy="441.8" r="73.9"/>
<g>
	<text transform="matrix(1 0 0 1 118.8528 438.4998)" class="st1 st2 st3">AI / Automation </text>
	<text transform="matrix(1 0 0 1 146.191 464.3677)" class="st1 st2 st3">engineer</text>
</g>
<g>
	<g>
		<g>
			<g>
				<defs>
					<ellipse id="SVGID_1_" cx="269.5" cy="172.6" rx="176.9" ry="166.9"/>
				</defs>
				<clipPath id="SVGID_2_">
					<use xlink:href="#SVGID_1_"  style="overflow:visible;"/>
				</clipPath>
				<g transform="matrix(1 0 0 1 0 -9.536743e-07)" class="st4">
					
						<image style="overflow:visible;enable-background:new    ;" width="659" height="700" xlink:href="5CFE9C56.jpg"  transform="matrix(0.5788 0 0 0.5788 78.7816 -15.6563)">
					</image>
				</g>
			</g>
		</g>
	</g>
</g>
</svg>
