<svg xmlns="http://www.w3.org/2000/svg" width="1001.467" height="488.559" viewBox="0 0 1001.467 488.559">
  <g id="Group_198" data-name="Group 198" transform="matrix(0.995, 0.105, -0.105, 0.995, -31.556, -3600.921)">
    <path id="Path_397" data-name="Path 397" d="M769.125,116.76c48.848,35.734,68.312,111.283,53.141,175.014S762.333,406.579,710.085,435.431c-43.518,24.032-100.815,31.972-136.414-5.269-9.918-10.371-17.744-25.842-14.08-40.584,3.819-15.354,19.722-24.105,33.533-21.238s25.049,15.045,31.525,29.2a68.434,68.434,0,0,1,6.482,30.951c-1.381,33.7-30.826,56.939-59.2,66.868-55.541,19.435-118.825,7.7-166.054-30.781-21.525-17.543-32.424-61.918-47.629-96.238-14.036-29.394-33.243-43.713-61.991-50.632-33.907-8.159-112.286,36.813-112.286,36.813s-58.939,63.414-79.536,80.91C62.332,471.2-29.527,364.883-82.7,397.542s-53.8,51.843-53.8,51.843" transform="translate(585.802 3457.685)" fill="none" stroke="gray" stroke-miterlimit="10" stroke-width="2" stroke-dasharray="12"/>
    <path id="Path_398" data-name="Path 398" d="M0,8.209,29.106,58.356,76.6,0Z" transform="translate(1307.117 3608.336) rotate(-132)" fill="#3972c4"/>
    <path id="Path_399" data-name="Path 399" d="M0,25.226,66.719,0,0,58.356Z" transform="translate(1300.508 3600.996) rotate(-132)" fill="#fff"/>
  </g>
</svg>
