<svg xmlns="http://www.w3.org/2000/svg" width="1168.707" height="450.989" viewBox="0 0 1168.707 450.989">
  <g id="Group_198" data-name="Group 198" transform="translate(-448.295 -3512.366)">
    <path id="Path_397" data-name="Path 397" d="M959.769,116.76c59.13,35.734,82.692,111.283,64.327,175.014s-72.55,114.805-135.8,143.657c-52.679,24.032-122.037,31.972-165.13-5.269-12.006-10.371-21.479-25.842-17.044-40.584,4.623-15.354,23.874-24.105,40.592-21.238s30.322,15.045,38.161,29.2c5.268,9.52,8.382,20.234,7.847,30.951-1.672,33.7-37.315,56.939-71.657,66.868-67.232,19.435-143.838,7.7-201.01-30.781C494,447.037,480.81,402.661,462.4,368.341c-16.99-29.394-40.241-43.713-75.041-50.632-41.045-8.159-135.923,36.813-135.923,36.813s-71.346,63.414-96.279,80.91C104.19,471.2-7.007,364.883-71.377,397.542s-65.13,51.843-65.13,51.843" transform="translate(585.802 3457.685)" fill="none" stroke="gray" stroke-miterlimit="10" stroke-width="2" stroke-dasharray="12"/>
    <path id="Path_398" data-name="Path 398" d="M0,8.209,29.106,58.356,76.6,0Z" transform="translate(1510.009 3608.336) rotate(-132)" fill="#3972c4"/>
    <path id="Path_399" data-name="Path 399" d="M0,25.226,66.719,0,0,58.356Z" transform="translate(1503.4 3600.996) rotate(-132)" fill="#fff"/>
  </g>
</svg>
