<?xml version="1.0" encoding="utf-8"?>
<!-- Generator: Adobe Illustrator 25.2.3, SVG Export Plug-In . SVG Version: 6.00 Build 0)  -->
<svg version="1.1" id="Layer_1" xmlns="http://www.w3.org/2000/svg" xmlns:xlink="http://www.w3.org/1999/xlink" x="0px" y="0px"
	 viewBox="0 0 202 532.6" style="enable-background:new 0 0 202 532.6;" xml:space="preserve">
<style type="text/css">
	.st0{fill:#CFA384;}
	.st1{fill:#3972C4;stroke:#1F3C6B;stroke-width:2;stroke-miterlimit:10;}
	.st2{fill:#666666;}
	.st3{fill:#2E2E2E;}
	.st4{fill:#EBEBEB;stroke:#ABABAB;stroke-width:2;stroke-miterlimit:10;}
	.st5{fill:none;}
	.st6{fill:#EAB896;}
	.st7{fill:#573E26;}
	.st8{fill:none;stroke:#1F3C6B;stroke-width:2;stroke-miterlimit:10;}
	.st9{fill:none;stroke:#2F5AA1;stroke-width:2;stroke-miterlimit:10;}
	.st10{fill:none;stroke:#3668BA;stroke-width:2;stroke-miterlimit:10;}
	.st11{fill:none;stroke:#1F3C6B;stroke-width:2;stroke-linecap:round;stroke-linejoin:round;}
	.st12{fill:none;stroke:#CFCFCF;stroke-width:2;stroke-miterlimit:10;}
	.st13{fill:none;stroke:#000000;stroke-width:2;stroke-miterlimit:10;}
	.st14{fill:#000F4E;}
	.st15{fill:none;stroke:#757575;stroke-width:2;stroke-miterlimit:10;}
	.st16{fill:none;stroke:#333333;stroke-width:2;stroke-linecap:round;stroke-linejoin:round;}
	.st17{fill:none;stroke:#CFA384;stroke-width:2;stroke-miterlimit:10;}
	.st18{fill:none;stroke:#CC9981;stroke-width:2;stroke-linecap:round;stroke-linejoin:round;}
	.st19{fill:none;stroke:#595959;stroke-width:2;stroke-linecap:round;stroke-linejoin:round;}
</style>
<path id="Path_334" class="st0" d="M111.3,48.1c0,0-7.2-0.5-2.7-19.3l2.1,7.1C110.1,39.9,110.3,44,111.3,48.1z"/>
<path id="Path_323" class="st1" d="M104.2,84.4c0,0-18.7,3.1-22.1,6.5c0,0,1.4,66.6-3.1,82.6s-1.7,39.1-1.7,39.1l3.7,2.4
	c0,0,71.4,9.6,88,2.3l3.5-12.1c0,0-5.9-54,1.2-63.5c0,0-4.4-41.1,6.8-47.6c0,0-23.1-9.5-25.8-8.8s-24.5,7.1-24.5,7.1L104.2,84.4z"/>
<path id="Path_325" class="st2" d="M79.4,224.5c0,0-7.6,7.4-19,264.3h31.4l28.5-219.7c0,0,12,123.9,11.4,216.6l5,0.5l27.3,2.6
	c0,0,10.6-228.4,10.6-232.4c0-1.4-7.6-11.7-10.6-26.8c-0.5-2.3-0.7-4.2-0.8-4.9C135.6,230.8,107,230.8,79.4,224.5L79.4,224.5z"/>
<path id="Path_326" class="st3" d="M164,227.8c0,0-45.5,8.3-84.6-3.3v-10.7c0,0,38.8,10.4,89.7,3.4L164,227.8z"/>
<g id="Group_108" transform="translate(100.277 75.251)">
	<path id="Path_335" class="st4" d="M45.1,1.7c0,0,9.9,5.8,9.5,8.2s-5.1,12.2-12.9,16c0,0-8.3-6.1-11.6-8.8
		C30.1,17,46.1,14.6,45.1,1.7z"/>
	<path id="Path_336" class="st4" d="M13.5,0c0,0-3.7,13.9,14.3,16.7l-11.9,9.2C10.2,21.7,6,15.9,4,9.1C4,9.1,9.7,1.7,13.5,0z"/>
</g>
<g id="Group_109" transform="translate(37.41 490.62)">
	<path id="Path_347" class="st5" d="M113.6,9.9c0,0,2.1-10.1,9.6-7.2s-4.3,7.2-4.3,7.2H113.6z"/>
	<path id="Path_348" class="st5" d="M110.3,9.9c0,0,1.1-7.4-3.9-7.7C106.4,2.2,102.8,7.7,110.3,9.9z"/>
	<path id="Path_349" class="st5" d="M19.5,11.4c0,0-7.4-10.1-15.5-11.2C4,0.2,4.1,12.8,19.5,11.4z"/>
	<path id="Path_350" class="st5" d="M16.8,8.2c0,0-0.8-5.9,2.7-7.9s0.6,9.4,0,11.2"/>
</g>
<path id="Path_321" class="st6" d="M42.3,122.4c0,0-1.3-33.6,2.4-35.7c0,0,1.8-5.1-2.7-2.4s-5.8,9.5-5.8,9.5s-4.1,4.8-7.1-1.7
	s-5.1-17-5.1-17s-2-5.8-3.7,0c0,0,2.4,10.9,3.1,12.9s-2.7,1-3.1,0s-5.1-12.9-5.1-12.9s-3.1-6.1-3.7,1.7c0,0,4.4,11.9,7.8,17
	c0,0-0.7,2.4-2.7,0S9.4,81,9.4,81S6.4,78.3,6,82s9.2,15.5,9.2,15.5s-2,2.8-2.4,1.8s-5.4-7.1-5.4-7.1s-4.8-0.3-3.1,1.7
	s13.3,20,22.8,23.4l3.7,7.9C30.8,125.3,40.2,125.1,42.3,122.4z"/>
<path id="Path_322" class="st1" d="M180.7,93.9c0,0,9.9,7.5,14.3,27.5s17.7,77.8-10.5,107.7l-7.1,9.5l-13.3-9.2l3.7-8.5
	c0,0,16-39.4,6.1-79.5C173.9,141.5,169.1,105.1,180.7,93.9z"/>
<path id="Path_324" class="st1" d="M44.4,119.7c0,0-4.1,8.5-15.3,5.1c0,0,9.2,54.7,22.8,59.8s18-6.5,21.4-10.9s7.8-15.3,7.8-15.3
	l1-67.6c0,0-11.6-2-21.8,53.4v3.1L44.4,119.7z"/>
<path id="Path_327" class="st7" d="M159.6,15.5c0.3,3.5,0.1,7-0.6,10.5c-1.2,6-3.7,11.7-7.3,16.6l-2.3-15.4l-31.9-6l-6.8,10.5v4.1
	c0,0-3.7-11.2-3.7-15.3c0,0-1-4.8,0-7.1s5.6-2.4,3.7-7.8s10.6-2.7,10.6-2.7c1.6-1.4,3.5-2.3,5.6-2.7c2.6-0.4,5.2,0,7.6,1
	c1.5,0.7,2.4,1.5,4.2,1.7c1,0.1,2.1,0,3.1-0.3c2.4,2.4,5.2,4.2,8.3,5.6c1.8,0.6,3.6,1.4,5.2,2.4C157.1,11.9,158.6,13.6,159.6,15.5z"
	/>
<path id="Path_328" class="st6" d="M142.6,62.7v14.3l2.7,2c0,0,0.2,9.2-15,13.2c0,0-20-1.7-16.6-17h4.1V62.7
	C117.8,62.7,131.4,79,142.6,62.7z"/>
<path id="Path_329" class="st6" d="M142.6,19.2c-6.8-0.5-10.1,0.4-16.9,0.8c-8.1,0.5-9.9-0.5-12.1,1.4c-3,2.5-3.2,7.3-2.9,10.4v7.5
	c0,0-1.4,12.9,7.1,23.4s19.3,8.5,24.8,0c2.3-3.6,4.6-5.8,6.4-9.3c2.8-5.5,3.1-10.3,3.4-14.8c0.4-3.8,0.2-7.6-0.7-11.3
	c-0.8-3.6-1.8-5-2.8-5.9C147.2,19.7,145,19.3,142.6,19.2z"/>
<path id="Path_330" class="st8" d="M132.5,93.9c0,0,4.3,112.3-0.8,125.7"/>
<path id="Path_331" class="st9" d="M124.3,94.7c0,0,0.7,106.1,0,125.2"/>
<rect id="Rectangle_26" x="87.9" y="126.9" class="st10" width="22.7" height="6.1"/>
<path id="Path_332" class="st11" d="M60.4,147.3c0,0,8.2,8.2,7.8,15.3"/>
<line id="Line_79" class="st8" x1="184.4" y1="229.2" x2="169.2" y2="217.2"/>
<path id="Path_333" class="st0" d="M150.7,49c0,0,6.5,1.7,5.5-14.3l-3.7,3.8l-2.2,11.9"/>
<rect id="Rectangle_27" x="114.8" y="219.9" class="st12" width="19.4" height="10.4"/>
<line id="Line_80" class="st13" x1="152.8" y1="219.6" x2="152.8" y2="229.5"/>
<line id="Line_81" class="st13" x1="94.7" y1="216.8" x2="94.7" y2="228"/>
<path id="Path_337" class="st6" d="M174.7,236.9v19.5c0,0-11.6-4.8-15-11.6s-6.8,6.8-6.8,6.8h-5.4c0,0,7.1-18,16.6-22.1L174.7,236.9
	z"/>
<path id="Path_338" class="st0" d="M137.2,500.5l-0.5-14.3l19.5,1.8v12.5H137.2z"/>
<rect id="Rectangle_28" x="60.4" y="488.8" class="st0" width="21.7" height="11.7"/>
<path id="Path_339" class="st14" d="M174.7,524.5c0,0-33.6,3.1-42.9,0c0,0-0.1-20.4,9-24h15.5C156.3,500.5,171.3,518.9,174.7,524.5z
	"/>
<path id="Path_340" class="st2" d="M174.7,532.6v-8.2c-6.9,0.6-14.5,0.9-22.5,0.9c-7.2,0-14.1-0.4-20.4-0.9v8.2H174.7z"/>
<path id="Path_341" class="st14" d="M82.1,500.5v21.4H55.6l-6.1,3.9H9.2v-3.9l51.1-21.4H82.1z"/>
<path id="Path_342" class="st2" d="M82.1,532.6v-10.7H55.6l-6.1,3.9H9.2v6.8h40.3l7.5-5.4v5.4L82.1,532.6z"/>
<path id="Path_343" class="st15" d="M82.1,509.5c0,0-11.9,3.7-13.3,12.4"/>
<path id="Path_344" class="st15" d="M49,505.3c0,0,14.5,8.6,15.8,16.6"/>
<path id="Path_345" class="st15" d="M164.2,512.2c0,0-10.9,1-11.9-11.7"/>
<path id="Path_346" class="st15" d="M136.7,512.2c0,0,13,2.5,9.4-11.7"/>
<line id="Line_82" class="st15" x1="158.1" y1="512.4" x2="143.9" y2="512.4"/>
<path id="Path_351" class="st16" d="M145.4,35.8c0,0-2-2.4-8.2-2.7"/>
<path id="Path_352" class="st16" d="M119.5,34.4c0,0,4.1-2,7.1-1.4"/>
<line id="Line_83" class="st16" x1="139.9" y1="42.7" x2="139.9" y2="38.4"/>
<line id="Line_84" class="st16" x1="123.1" y1="42.6" x2="123.1" y2="38.4"/>
<path id="Path_353" class="st17" d="M130.3,40.5v7.5c0,0-3.8,0,0,2.4"/>
<path id="Path_354" class="st18" d="M139.9,54.2c0,0-10.5,6.1-16.8,0"/>
<path id="Path_355" class="st0" d="M142.6,71.3c0,0-10,11-24.8,0v-8.7c0,0,12.7,16,24.8,0V71.3z"/>
<line id="Line_85" class="st19" x1="71.3" y1="488.8" x2="87.9" y2="337.5"/>
<line id="Line_86" class="st19" x1="146.5" y1="487.1" x2="147.4" y2="329.9"/>
</svg>
